<?xml version="1.0" encoding="utf-8"?>
<!-- Generator: Adobe Illustrator 17.1.0, SVG Export Plug-In . SVG Version: 6.00 Build 0)  -->
<!DOCTYPE svg PUBLIC "-//W3C//DTD SVG 1.1//EN" "http://www.w3.org/Graphics/SVG/1.1/DTD/svg11.dtd">
<svg version="1.1" id="Layer_1" xmlns="http://www.w3.org/2000/svg" xmlns:xlink="http://www.w3.org/1999/xlink" x="0px" y="0px"
	 viewBox="0 0 16 16" enable-background="new 0 0 16 16" xml:space="preserve">
<g>
	<path fill="none" d="M7.5,10.6C7.5,10.6,7.5,10.6,7.5,10.6c-0.1-0.5-0.3-0.8-0.6-1.1C6.6,9.1,6,8.9,5.5,8.9C5.1,8.9,4.7,9,4.4,9.2
		C4.3,9.3,4.1,9.4,4,9.5c-0.4,0.4-0.6,0.9-0.6,1.5c0,0.6,0.2,1.1,0.6,1.5c0.1,0.1,0.2,0.2,0.3,0.3C4.7,12.9,5.1,13,5.5,13
		c0.6,0,1.1-0.2,1.5-0.6c0.3-0.3,0.5-0.6,0.5-1c0,0,0,0,0-0.1c0-0.1,0-0.2,0-0.3C7.6,10.9,7.5,10.7,7.5,10.6z"/>
	<path fill="#04346E" d="M13.7,6.3l-2-2.1c-0.1-0.1-0.2-0.1-0.3,0l-4,4c0,0,0,0,0,0C7.2,8.2,7.1,8.1,6.9,8c0,0,0,0,0,0
		C6.8,7.9,6.6,7.9,6.5,7.8c0,0,0,0-0.1,0c-0.1,0-0.2-0.1-0.3-0.1l0-2.3l1.4,0c0.1,0,0.2-0.1,0.2-0.2l0-0.7c0-0.1-0.1-0.2-0.2-0.2
		l-1.4,0l0-1.3L8,3c0.1,0,0.2-0.1,0.2-0.2l0-0.7c0-0.1-0.1-0.2-0.2-0.2l-2.9,0C5,1.8,4.9,1.9,4.9,2.1l0.1,5.7c0,0,0,0-0.1,0
		c-0.1,0-0.1,0-0.1,0c-0.1,0-0.3,0.1-0.4,0.1C4.3,7.9,4.2,8,4.1,8C4,8.1,3.9,8.1,3.8,8.2c-0.1,0-0.1,0.1-0.2,0.1
		C3.5,8.4,3.3,8.5,3.2,8.6c0,0,0,0,0,0c0,0,0,0-0.1,0.1C3,8.8,2.9,9,2.8,9.1c0,0,0,0-0.1,0.1C2.4,9.7,2.2,10.3,2.2,11c0,0,0,0,0,0
		c0,0.1,0,0.1,0,0.2c0,0.1,0,0.2,0,0.4c0,0.1,0,0.2,0.1,0.2c0,0.1,0.1,0.2,0.1,0.4c0,0.1,0.1,0.1,0.1,0.2c0.1,0.1,0.1,0.2,0.2,0.4
		c0,0.1,0.1,0.1,0.1,0.1C3,13,3,13.1,3.1,13.1c0,0,0,0,0.1,0.1c0.1,0.1,0.2,0.1,0.3,0.2c0.1,0.1,0.2,0.2,0.3,0.2
		c0.1,0.1,0.3,0.2,0.5,0.3c0.1,0,0.1,0,0.2,0.1c0.1,0.1,0.3,0.1,0.4,0.1c0.1,0,0.1,0,0.2,0c0.1,0,0.2,0,0.4,0c0,0,0,0,0.1,0
		c0,0,0,0,0,0c0.1,0,0.3,0,0.4,0c0.1,0,0.2,0,0.2,0c0.6-0.1,1.2-0.4,1.7-0.9c0.3-0.3,0.5-0.6,0.7-1c0,0,0-0.1,0-0.1
		c0.1-0.2,0.1-0.3,0.1-0.5c0-0.1,0-0.1,0-0.2c0-0.1,0-0.3,0-0.4c0,0,0-0.1,0-0.1c0,0,0-0.1,0-0.1c0-0.1,0-0.2,0-0.3
		c0-0.1,0-0.2,0-0.3c0-0.1,0-0.1-0.1-0.2c0-0.1-0.1-0.2-0.1-0.3c0-0.1,0-0.1-0.1-0.2C8.4,9.4,8.3,9.3,8.2,9.2c0,0,0,0,0,0l1.6-1.6
		l1,1c0.1,0.1,0.2,0.1,0.3,0L11.6,8c0.1-0.1,0.1-0.2,0-0.3l-1-1l0.9-0.9l1.3,1.4c0.1,0.1,0.2,0.1,0.3,0l0.5-0.5
		C13.8,6.5,13.8,6.4,13.7,6.3z M7.5,11.3C7.5,11.3,7.5,11.4,7.5,11.3c-0.1,0.4-0.3,0.8-0.6,1.1C6.6,12.8,6,13,5.5,13
		c-0.4,0-0.8-0.1-1.1-0.3c-0.1-0.1-0.2-0.2-0.3-0.3c-0.4-0.4-0.6-0.9-0.6-1.5c0-0.6,0.2-1.1,0.6-1.5c0.1-0.1,0.2-0.2,0.4-0.3
		C4.7,9,5.1,8.9,5.5,8.9c0.6,0,1.1,0.2,1.5,0.6c0.3,0.3,0.5,0.7,0.6,1.1c0,0,0,0.1,0,0.1c0,0.1,0,0.3,0,0.4
		C7.5,11.1,7.5,11.2,7.5,11.3z"/>
</g>
</svg>
