<?xml version="1.0" encoding="utf-8"?>
<!-- Generator: Adobe Illustrator 19.1.1, SVG Export Plug-In . SVG Version: 6.00 Build 0)  -->
<svg version="1.1" id="Слой_1" xmlns="http://www.w3.org/2000/svg" xmlns:xlink="http://www.w3.org/1999/xlink" x="0px" y="0px"
	 viewBox="0 0 491.6 59.1" style="enable-background:new 0 0 491.6 59.1;" xml:space="preserve">
<style type="text/css">
	.st0{fill:#078DD0;}
	.st1{fill:#04346E;}
</style>
<g>
	<path class="st0" d="M37,46.2c0-8-0.2-8.2-8.2-8.2c-0.5,0-7.5,0.6-7.5-6.8c0-1.7,0.1-3.3,0-5c-0.2-2.5-0.7-3.6-3.4-4
		c-1.1-0.2-2.7-0.3-4.8-0.3c0,0,0,0-0.1,0c-0.4,0-0.8,0-1.3,0c-4.7,0-6.2,1-6.4,4.3c-0.1,1.2,0,2.4,0,3.6c0,8,0.2,8.2,8.2,8.2
		c6.6,0,7.4,3.8,7.5,6.8c0.1,1.7-0.1,3.3,0,5c0.2,2.5,0.7,3.6,3.4,4c1.1,0.2,2.7,0.3,4.8,0.3c0,0,0,0,0.1,0c0.4,0,0.8,0,1.3,0
		c4.7,0,6.2-1,6.4-4.3C37.1,48.5,37,47.4,37,46.2z"/>
	<path class="st1" d="M52.8,30.4c0-8-0.2-8.2-8.2-8.2c-0.5,0-7.5,0.6-7.5-6.8c0-1.7,0.1-3.3,0-5c-0.2-2.5-0.7-3.6-3.4-4
		C32.4,6.1,30.9,6,28.8,6c0,0,0,0-0.1,0c-0.4,0-0.8,0-1.3,0c-4.7,0-6.2,1-6.4,4.3c-0.1,1.2,0,2.4,0,3.6c0,8,0.2,8.2,8.2,8.2
		c6.6,0,7.4,3.8,7.5,6.8c0.1,1.7-0.1,3.3,0,5c0.2,2.5,0.7,3.6,3.4,4c1.1,0.2,2.7,0.3,4.8,0.3c0,0,0,0,0.1,0c0.4,0,0.8,0,1.3,0
		c4.7,0,6.2-1,6.4-4.3C52.9,32.8,52.8,31.6,52.8,30.4z"/>
	<path class="st1" d="M156,48.4c-0.1,0.1-0.2,0.2-0.2,0.2c-0.3,3.9-1.7,4.9-5.5,4.1c-1.4-0.3-2-1.3-2-2.7c0-4.1,0-8.2,0-12.4
		c0-9.1,0-18.1,0-27.2c0-2.7,0.7-3.4,3.4-3.4c4.4,0,4.6,0.2,4.6,4.6c0,3.7,0,7.4,0,11.1c0,0.3-0.2,0.6,0.2,0.9
		c0.4,0,0.6-0.3,0.7-0.5c6.2-7.3,19.2-4.5,22.4,6c1.9,6.5,1.7,12.7-2.1,18.5c-3.4,5-9.8,7.2-15.4,5.5
		C160.1,52.5,158.7,51.5,156,48.4z M172.6,36.4c0.1-1.9-0.2-3.8-1-5.5c-1.3-2.9-3.5-4.7-6.8-4.8c-3.5-0.1-6,1.5-7.4,4.6
		c-1.8,3.9-1.7,7.9,0.2,11.8c1.4,2.9,3.8,4.4,7.1,4.2c3.1-0.2,5.3-1.8,6.7-4.5C172.3,40.3,172.7,38.4,172.6,36.4z"/>
	<path class="st1" d="M333.4,6.1c3.1,0.2,6.8,1,10.1,3c2.2,1.3,2.4,2.4,1.2,4.7c-0.2,0.4-0.5,0.9-0.7,1.3c-1.1,1.9-2.1,2.2-4.1,1
		c-3.2-2-6.7-2.9-10.4-1.9c-2,0.5-3.6,1.6-4.1,3.9c-0.5,2.3,0.5,4,2.3,5.3c2.1,1.5,4.4,2.4,6.7,3.4c2.4,1.1,4.9,2.1,7.1,3.7
		c3.8,2.7,5.5,6.5,5,11.1c-0.5,4.9-2.9,8.7-7.5,10.6c-7.7,3.2-14.7,1.4-21.4-3c-1.2-0.8-1.4-1.9-0.8-3.1c0.6-1.1,1.3-2.1,2.1-3.1
		c1-1.2,2-1.2,3.7,0c3,2.1,6.4,3.2,10.1,2.9c3.6-0.3,5.9-2.5,5.7-5.6c-0.1-1.6-1-2.8-2.2-3.8c-1.8-1.5-4-2.4-6.2-3.4
		c-2.1-1-4.3-1.9-6.3-3.1c-4.6-2.7-7.1-6.6-6.5-12.1c0.6-5.6,4-9.1,9.1-10.9C328.4,6.4,330.6,6.1,333.4,6.1z"/>
	<path class="st1" d="M91.8,53.7c-5-0.2-9.6-1.6-13.7-4.5c-1.5-1-1.6-2-0.8-3.6c0.1-0.1,0.1-0.2,0.2-0.3c2.1-3.2,2.5-4.5,6.6-1.7
		c3.2,2.2,6.8,2.8,10.6,1.9c1.9-0.4,3.3-1.5,3.9-3.5c0.5-2.1,0-3.8-1.6-5.2c-2-1.8-4.4-2.7-6.8-3.8c-2.2-1-4.5-2-6.6-3.3
		c-4.1-2.6-6.3-6.1-6-11.1c0.3-5.1,2.8-8.8,7.3-10.8c6.5-3,12.9-2.1,19.1,1.3c2.1,1.2,2.3,2.4,1.2,4.5c-0.2,0.3-0.4,0.7-0.5,1
		c-1.3,2.3-2.2,2.6-4.5,1.2c-3.2-1.9-6.5-2.7-10.2-1.8c-2.1,0.5-3.7,1.7-4.2,4c-0.5,2.3,0.6,4,2.4,5.2c2.5,1.7,5.3,2.7,8.1,4
		c2,0.9,4.1,1.9,5.9,3.2c4,2.9,5.4,7,4.7,11.7c-0.7,4.8-3.4,8.2-7.8,10.1C96.7,53.3,94.3,53.7,91.8,53.7z"/>
	<path class="st1" d="M350.5,36.3c0-9.1,7-17.3,18.1-17.2c10.7,0.1,18.2,7.9,17.9,18.1c-0.3,9.7-8.5,16.8-18.9,16.5
		C357.9,53.4,350.2,45.6,350.5,36.3z M368.4,46.7c5.8,0,9.9-4.3,9.9-10.3c0-5.8-4.2-10.3-9.6-10.3c-5.8,0-9.9,4.3-10,10.4
		C358.7,42.2,362.8,46.7,368.4,46.7z"/>
	<path class="st1" d="M265.8,47.8c-0.9,1-1.5,1.7-2.1,2.3c-4.1,4.2-10.4,4.8-15.2,1.4c-3-2.2-4.2-5.2-3.8-8.8
		c0.4-3.7,2.6-6.2,5.9-7.6c3.9-1.7,8.1-2.2,12.4-2.3c2.5-0.1,2.5,0,2-2.5c-0.5-2.5-2.5-4.1-5.3-4.3c-2.5-0.1-4.9,0.5-7.1,1.6
		c-2.4,1.2-3.1,0.8-4.5-1.8c-1-2.1-0.7-3.1,1.5-4.2c4.5-2.3,9.3-3.1,14.3-2c5.1,1.1,8.2,4.5,9.1,9.6c0.4,2.3,0.2,4.6,0.3,6.9
		c0,4.6,0,9.2,0,13.8c0,2.2-0.7,3-3,3.1c-0.5,0-1,0-1.4,0c-2.4-0.1-3-0.7-3-3.1C265.8,49.3,265.8,48.7,265.8,47.8z M257.5,47.6
		c5.1,0.1,7.9-5.6,7.6-9.4c0-0.5-0.3-0.6-0.7-0.6c-3-0.1-6,0.1-8.8,1.3c-2.3,1-3.4,3-3,5.1C253.2,46.3,255,47.6,257.5,47.6z"/>
	<path class="st1" d="M461.5,48.1c-1.2,1.1-2.2,2.2-3.4,3.1c-4.4,3.7-11.6,3.2-15.5-1c-4.4-4.8-2.5-12.7,3.7-15.2
		c4.2-1.7,8.6-2.3,13-2.2c1.4,0,1.5-0.4,1.4-1.6c-0.4-4.4-4-5.7-8.2-5c-1.6,0.2-3.2,0.9-4.7,1.6c-2.1,1-2.8,0.6-4.1-2
		c-0.9-1.9-0.7-3,1.1-4c4.4-2.4,9.1-3.2,14-2.3c5.8,1,9.5,4.9,9.8,10.8c0.4,6.8,0.2,13.6,0.2,20.4c0,1.3-0.7,2.1-2,2.3
		c-0.4,0.1-0.8,0.1-1.3,0.1c-3.6,0.1-4.1-0.4-4.1-4C461.5,48.7,461.5,48.5,461.5,48.1z M457.9,37.6c-1.9,0.1-4.5,0.3-6.9,1.5
		c-2,1.1-3,3.1-2.5,5.1c0.5,2.1,2.2,3.3,4.5,3.3c3.9,0.1,7-2.8,7.8-7.3C461.3,37.7,461.2,37.6,457.9,37.6z"/>
	<path class="st1" d="M134.1,47.1c-3.7,5.2-8.3,7.3-14.2,6.3c-4.2-0.7-7-3.3-8-7.5c-0.4-1.6-0.5-3.3-0.5-4.9c0-5.9,0-11.8,0-17.7
		c0-2.7,0.7-3.4,3.5-3.4c4.4,0,4.7,0.3,4.7,4.7c0,5.2,0,10.5,0,15.7c0,4.8,2.8,6.8,7.4,5.6c3-0.8,4.8-2.8,6-5.6c0.7-1.7,1-3.5,1-5.3
		c0-4,0-8,0-12.1c0-2.3,0.8-3.1,3.1-3.1c4.9-0.1,5,0.1,5,5c0,8.2,0,16.4,0,24.6c0,2.5-0.8,3.2-3.3,3.2c-4.2,0-4.5-0.3-4.5-4.4
		C134.1,48,134.1,47.7,134.1,47.1z"/>
	<path class="st1" d="M208.4,47.3c-1.8,2.9-4.4,4.9-7.7,5.9c-3.1,0.9-6.1,0.7-8.9-0.5c-4.1-1.7-5.7-5.3-5.8-9.4
		c-0.2-6.9-0.1-13.8-0.1-20.7c0-1.7,0.9-2.5,2.6-2.6c5-0.3,5.5,0.1,5.5,5.1c0,4.8,0,9.5,0,14.3c0,0.3,0,0.5,0,0.8
		c0,5.7,4.2,8.1,9.2,5.2c3.9-2.3,5.1-6.1,5.2-10.2c0.1-4,0-7.9,0-11.9c0-2.6,0.7-3.2,3.2-3.3c4.7,0,4.9,0.2,4.8,4.9
		c0,8.2,0,16.4,0,24.6c0,2.6-0.7,3.3-3.3,3.3c-4.2,0-4.4-0.3-4.4-4.5C208.6,48,208.9,47.7,208.4,47.3z"/>
	<path class="st1" d="M390.4,36.4c0.1-11.2,9.7-18.3,20.3-16.9c2.8,0.4,5.4,1.2,7.8,2.8c1.9,1.3,2,2.3,0.6,4.5
		c-1.4,2.2-2.3,2.5-4.3,1.3c-5.3-3.1-11.5-2-14.4,2.5c-2.5,3.8-2.2,9.1,0.6,12.6c2.8,3.5,7.9,4.3,12.2,2.8c1.2-0.4,2.2-1.1,3.3-1.7
		c1.6-1,2.6-0.7,3.6,1c1.5,2.7,1.4,3.6-0.8,5.2c-6,4.3-15.7,4.4-21.8,0.1C392.9,47.3,390.4,42.2,390.4,36.4z"/>
	<path class="st1" d="M225.5,35.4c0-2.4-0.1-7.9-0.1-7.9s-0.6-0.2-1.7-0.2c-2.5,0-2.7-1.3-2.7-3.9c0-2.3,0.7-3.1,3.1-3h1.5
		c0,0,0-4.7,0-6.4c0-1.9,0.4-2.9,3.5-2.9c3.8,0,4.4,0.2,4.4,4.9c0,1.5-0.1,4.5-0.1,4.5s3.1,0,4.6,0.1c2.2,0.1,2.9,0.9,2.9,3.3
		c0,2.3-0.3,3.4-2.5,3.4c-2.7,0-5,0-5,0s0.1,2.8,0.1,4.2c0,2.8,0,5.6,0,8.4c0,4,1.6,5.7,5.6,6.1c1.7,0.2,2.3,0.8,2.4,2.6
		c0.1,4.3-1.1,5.3-5.4,4.6c-7.4-1.3-10.7-5.3-10.7-12.8C225.5,38.7,225.5,37.1,225.5,35.4z"/>
	<path class="st1" d="M474.9,27c0-5.5,0-11,0-16.6c0-2.7,0.7-3.4,3.4-3.4c4.5,0,4.7,0.2,4.7,4.7c0,10,0,19.9,0,29.9
		c0,0.8,0,1.6,0.2,2.4c0.3,1,0.9,1.9,2.1,1.9c1.6,0.1,2.2,1,2.3,2.5c0.2,4.1-0.8,4.9-4.8,4.4c-5.3-0.7-7.6-4.2-7.7-8.7
		c-0.2-5.7,0-11.5,0-17.2C474.9,27,474.9,27,474.9,27z"/>
	<path class="st1" d="M426.6,36.6c0-4.4,0-8.9,0-13.3c0-2.3,0.7-3,3-3c4.9,0,5,0.1,5,5c0,8.1,0,16.3,0,24.4c0,2.8-0.7,3.4-3.4,3.4
		c-4.4,0-4.6-0.2-4.6-4.6C426.6,44.5,426.6,40.5,426.6,36.6z"/>
	<path class="st1" d="M279.2,36.6c0-4.4,0-8.9,0-13.3c0-2.3,0.7-2.9,3-3c4.9,0,5,0.1,5,5c0,8.1,0,16.2,0,24.3c0,2.9-0.6,3.6-3.6,3.6
		c-4.2,0-4.4-0.2-4.4-4.4C279.2,44.6,279.2,40.6,279.2,36.6z"/>
	<path class="st1" d="M283.2,17c-0.5,0-1,0-1.4,0c-0.3,0-0.6,0-0.9-0.1c-1.5-0.5-2-2.1-1.6-5c0.2-1.5,1.1-2.1,2.5-2.2
		c0.4,0,0.9,0,1.3,0c4.3-0.3,4.6,1.2,4.1,5.6c-0.1,1.2-1.1,1.7-2.2,1.8C284.4,17,283.8,17,283.2,17C283.2,17,283.2,17,283.2,17z"/>
	<path class="st1" d="M430.6,17c-0.5,0-1,0-1.4,0c-0.3,0-0.6,0-0.9-0.1c-1.5-0.5-2-2.1-1.6-5c0.2-1.5,1.1-2.1,2.5-2.2
		c0.4,0,0.9,0,1.3,0c4.3-0.3,4.6,1.2,4.1,5.6c-0.1,1.2-1.1,1.7-2.2,1.8C431.8,17,431.2,17,430.6,17C430.6,17,430.6,17,430.6,17z"/>
</g>
</svg>
