<?xml version="1.0" encoding="utf-8"?>
<!-- Generator: Adobe Illustrator 21.1.0, SVG Export Plug-In . SVG Version: 6.00 Build 0)  -->
<svg version="1.0" id="Layer_1" xmlns="http://www.w3.org/2000/svg" xmlns:xlink="http://www.w3.org/1999/xlink" x="0px" y="0px"
	 viewBox="0 0 131.5 34.1" enable-background="new 0 0 131.5 34.1" xml:space="preserve">
<g>
	<path fill="#04346E" d="M27.3,30.8H9.4c-2.2,0-3.9-1.8-3.9-3.9v-8.3h3.2v5.9c0,0.4,0.3,0.7,0.7,0.7h2c0.4,0,0.7-0.3,0.7-0.7v-5.9
		h5.8L18,19c0.9,4.2,4.7,7.2,9,7.2c5.1,0,9.2-4.2,9.2-9.3S32.1,7.7,27,7.7c-4.3,0-8.1,3-9,7.2l-0.1,0.4h-16c-0.8,0-1.5,0.5-1.7,1.3
		c-0.3,1.1,0.5,2,1.6,2.1h0.5V27c0,4,3.3,7.3,7.3,7.3h18c4,0,7.3-3.3,7.3-7.3l0,0c0-0.3-0.4-0.5-0.6-0.3c-0.9,0.7-1.9,1.3-3,1.8
		C30.4,29.8,28.9,30.8,27.3,30.8z M26.9,11c3.3,0,5.9,2.7,5.9,5.9c0,3.3-2.7,5.9-5.9,5.9c-3.3,0-5.9-2.7-5.9-5.9
		C20.9,13.6,23.6,11,26.9,11z"/>
	<path fill="#04346E" d="M34.6,7.3L34.6,7.3c0-4-3.3-7.3-7.3-7.3h-18C5.3,0,2,3.3,2,7.3v4.6c0,0.4,0.3,0.7,0.7,0.7h2
		c0.4,0,0.7-0.3,0.7-0.7V7.3c0-2.2,1.8-3.9,3.9-3.9h17.9c1.6,0,3,0.9,3.6,2.3c0,0.1,0.1,0.2,0.2,0.2c1,0.4,2,1,2.9,1.7
		C34.2,7.7,34.6,7.6,34.6,7.3z"/>
</g>
<g>
	<path fill="#04346E" d="M42.4,16.1c-0.7-0.1-1.3-0.3-1.9-0.6v-2.6c0.5,0.4,1.1,0.7,1.8,0.9c0.7,0.2,1.4,0.3,2,0.3
		c1.1,0,1.7-0.4,1.7-1.2c0-0.4-0.2-0.6-0.5-0.8c-0.4-0.2-0.9-0.4-1.7-0.7c-0.4-0.1-0.6-0.2-0.7-0.2c-0.9-0.3-1.5-0.6-2-1.1
		c-0.5-0.5-0.7-1.2-0.7-2.1c0-0.6,0.2-1.2,0.5-1.8c0.3-0.5,0.8-1,1.5-1.3c0.7-0.3,1.5-0.5,2.6-0.5c0.7,0,1.3,0.1,1.8,0.2
		s1,0.3,1.6,0.6v2.6c-0.5-0.4-1-0.7-1.6-0.9c-0.6-0.2-1.2-0.4-1.7-0.4c-0.5,0-0.9,0.1-1.3,0.3s-0.5,0.5-0.5,0.9
		c0,0.3,0.1,0.5,0.3,0.7c0.2,0.2,0.4,0.3,0.7,0.4C44.5,9,45,9.1,45.6,9.3c0.7,0.2,1.3,0.4,1.8,0.7c0.5,0.2,0.9,0.6,1.1,1
		s0.4,1,0.4,1.6c0,0.7-0.2,1.3-0.5,1.9c-0.3,0.6-0.8,1-1.5,1.3c-0.6,0.3-1.4,0.5-2.3,0.5C43.8,16.3,43,16.2,42.4,16.1z"/>
	<path fill="#04346E" d="M52.1,15.4c-0.8-0.6-1.1-1.5-1.1-2.7V7.4h2.7v5.1c0,0.5,0.1,0.9,0.4,1.2c0.3,0.3,0.7,0.4,1.2,0.4
		s1-0.1,1.2-0.4c0.3-0.3,0.4-0.7,0.4-1.2V7.4h2.5v5.3c0,1.2-0.4,2.1-1.1,2.7c-0.7,0.6-1.7,0.9-3,0.9C53.9,16.3,52.8,16,52.1,15.4z"
		/>
	<path fill="#04346E" d="M69.6,8.4c0.7,0.8,1.1,1.9,1.1,3.3c0,3.1-1.6,4.6-4.8,4.6c-2.8,0-4.1-0.7-4.1-2.2V4.3h2.6v3.5
		c0.3-0.2,0.7-0.3,1.1-0.4c0.4-0.1,0.8-0.1,1.1-0.1C67.8,7.2,68.8,7.6,69.6,8.4z M67.9,11.9c0-1.8-0.7-2.6-2.1-2.6
		c-0.3,0-0.5,0-0.8,0.1c-0.3,0.1-0.5,0.2-0.8,0.3v3.8c0,0.5,0.5,0.8,1.5,0.8C67.2,14.2,67.9,13.4,67.9,11.9z"/>
	<path fill="#04346E" d="M73.6,15.4c-0.8-0.6-1.1-1.5-1.1-2.7V7.4h2.7v5.1c0,0.5,0.1,0.9,0.4,1.2c0.3,0.3,0.7,0.4,1.2,0.4
		c0.6,0,1-0.1,1.2-0.4c0.3-0.3,0.4-0.7,0.4-1.2V7.4h2.5v5.3c0,1.2-0.4,2.1-1.1,2.7c-0.7,0.6-1.7,0.9-3,0.9
		C75.4,16.3,74.3,16,73.6,15.4z"/>
	<path fill="#04346E" d="M84.6,15.7c-0.5-0.5-0.8-1.1-0.8-2V9.4h-1.3V7.4h1.3V5.1h2.8v2.4h2v1.9h-2v4c0,0.3,0.1,0.5,0.2,0.7
		c0.1,0.1,0.4,0.2,0.7,0.2c0.2,0,0.4,0,0.6-0.1c0.2-0.1,0.4-0.1,0.5-0.3V16c-0.5,0.2-1,0.4-1.7,0.4C85.9,16.4,85.1,16.2,84.6,15.7z"
		/>
	<path fill="#04346E" d="M97.2,7.8c0.8,0.4,1.2,1.2,1.2,2.4l0,4.1c0,0.7-0.4,1.2-1.1,1.6c-0.7,0.3-1.8,0.5-3.2,0.5c-2.6,0-4-1-4-2.9
		c0-0.8,0.3-1.5,0.8-1.9c0.5-0.5,1.3-0.7,2.4-0.7c0.4,0,0.9,0.1,1.3,0.2c0.4,0.1,0.8,0.2,1.1,0.4v-0.5c0-1-0.7-1.5-2-1.5
		c-0.5,0-1,0.1-1.6,0.3c-0.5,0.2-1,0.4-1.3,0.6V7.9c0.3-0.2,0.8-0.4,1.5-0.5c0.7-0.1,1.4-0.2,2.1-0.2C95.5,7.2,96.4,7.4,97.2,7.8z
		 M95.5,14.4c0.2-0.1,0.4-0.2,0.4-0.5v-1.3c-0.4-0.1-0.9-0.2-1.4-0.2c-0.6,0-1,0.1-1.3,0.2c-0.3,0.2-0.4,0.4-0.4,0.8
		c0,0.3,0.1,0.6,0.4,0.8s0.6,0.3,1,0.3C94.8,14.5,95.2,14.5,95.5,14.4z"/>
	<path fill="#04346E" d="M100.8,4.3h2.8v2h-2.8V4.3z M100.9,7.6h2.7l0,8.5h-2.7V7.6z"/>
	<path fill="#04346E" d="M40.4,20h5.8v1.5h-3.7v1.7h3.2v1.5h-3.2v1.8h3.7V28h-5.8V20z"/>
	<path fill="#04346E" d="M53.7,26.3V28h-5.9v-1.4c0.5-0.3,1.1-0.7,1.6-1.1c0.6-0.5,1.1-1,1.5-1.5c0.4-0.5,0.6-1,0.6-1.4
		c0-0.4-0.1-0.7-0.4-0.9c-0.3-0.2-0.6-0.3-1.1-0.3c-0.4,0-0.7,0.1-1.1,0.2s-0.7,0.4-1.1,0.7v-1.7c0.9-0.5,1.8-0.7,2.8-0.7
		c0.9,0,1.6,0.2,2.1,0.6c0.5,0.4,0.7,1,0.7,1.8c0,0.5-0.2,1-0.5,1.5c-0.3,0.5-0.7,0.9-1.1,1.3c-0.4,0.4-1,0.8-1.6,1.2H53.7z"/>
	<path fill="#04346E" d="M55.5,20h5.8v1.5h-3.7v1.7h3.2v1.5h-3.2v1.8h3.7V28h-5.8V20z"/>
	<path fill="#04346E" d="M68.5,28h-2v-8h3.8c1,0,1.8,0.2,2.3,0.6c0.6,0.4,0.8,1.1,0.8,2c0,0.9-0.3,1.6-0.8,2.1
		c-0.6,0.5-1.3,0.7-2.3,0.7h-1.7V28z M70,23.9c0.4,0,0.7-0.1,0.9-0.3c0.2-0.2,0.3-0.5,0.3-0.8c0-0.8-0.4-1.2-1.2-1.2h-1.5v2.4H70z"
		/>
	<path fill="#04346E" d="M74.8,28v-8.4h1.9V28H74.8z"/>
	<path fill="#04346E" d="M79.1,27.6c-0.5-0.4-0.8-1-0.8-1.9V22h1.9v3.6c0,0.4,0.1,0.7,0.3,0.9c0.2,0.2,0.5,0.3,0.9,0.3
		s0.7-0.1,0.9-0.3c0.2-0.2,0.3-0.5,0.3-0.9V22h1.8v3.8c0,0.8-0.3,1.5-0.8,1.9c-0.5,0.4-1.2,0.6-2.2,0.6C80.4,28.2,79.7,28,79.1,27.6
		z"/>
	<path fill="#04346E" d="M91.1,22.2c0.5,0.3,0.7,0.7,0.7,1.2v4.7c0,0.8-0.3,1.5-0.8,1.9s-1.4,0.7-2.4,0.7c-0.5,0-1,0-1.4-0.1
		c-0.4-0.1-0.7-0.2-0.9-0.3v-1.6c0.2,0.1,0.6,0.2,1,0.3c0.4,0.1,0.9,0.2,1.3,0.2c0.5,0,0.9-0.1,1.2-0.3S90,28.4,90,28v-0.3
		c-0.4,0.4-1,0.5-1.6,0.5c-0.9,0-1.6-0.3-2.1-0.8s-0.7-1.2-0.7-2.2c0-1.3,0.3-2.1,0.9-2.6c0.6-0.5,1.5-0.8,2.7-0.8
		C90,21.8,90.6,22,91.1,22.2z M87.8,26.4c0.3,0.3,0.6,0.5,1,0.5c0.4,0,0.8-0.1,1.1-0.3v-2.8c0-0.4-0.3-0.6-1-0.6
		c-1,0-1.5,0.6-1.5,1.9C87.4,25.6,87.6,26.1,87.8,26.4z"/>
	<path fill="#04346E" d="M93.4,19.8h1.9v1.4h-1.9V19.8z M93.4,22.1h1.9l0,6h-1.9V22.1z"/>
	<path fill="#04346E" d="M98.5,22c0.7-0.1,1.3-0.2,1.8-0.2c0.9,0,1.6,0.2,2,0.5c0.5,0.3,0.7,0.9,0.7,1.7V28h-1.9v-3.7
		c0-0.7-0.4-1-1.2-1c-0.2,0-0.4,0-0.6,0.1c-0.2,0-0.3,0.1-0.5,0.1V28H97v-5.6C97.3,22.3,97.8,22.2,98.5,22z"/>
</g>
</svg>
