<svg xmlns="http://www.w3.org/2000/svg" style="width:0; height:0; visibility:hidden;">
  <symbol id="nav-keys" viewBox="0 0 15 15">
    <polyline stroke-miterlimit="10" points="1.5,6.1 3.8,3.8 8.5,8.4 "/>
    <line stroke-miterlimit="10" x1="4.2" y1="7.5" x2="5.9" y2="5.8"/>
    <circle stroke-miterlimit="10" cx="10.4" cy="10.8" r="3.1"/>
    <polyline stroke-miterlimit="10" points="7.4,1.1 10.7,1.1 10.7,7.7 "/>
    <line stroke-miterlimit="10" x1="8.3" y1="4.1" x2="10.7" y2="4.1"/>
    <circle stroke-miterlimit="10" cx="10.4" cy="10.8" r="3.1"/>
  </symbol>
  <symbol id="nav-peers" viewBox="0 0 15 15">
    <circle stroke-linecap="round" stroke-linejoin="round" stroke-miterlimit="10" cx="2.5" cy="10.4" r="1.9"/>
    <circle stroke-linecap="round" stroke-linejoin="round" stroke-miterlimit="10" cx="12.5" cy="10.4" r="1.9"/>
    <circle stroke-linecap="round" stroke-linejoin="round" stroke-miterlimit="10" cx="7.5" cy="4.6" r="1.9"/>
    <line stroke-linecap="round" stroke-linejoin="round" stroke-miterlimit="10" x1="3.9" y1="9" x2="6.1" y2="6"/>
    <line stroke-linecap="round" stroke-linejoin="round" stroke-miterlimit="10" x1="8.9" y1="6" x2="11.1" y2="9"/>
  </symbol>

  <!--Success-->
  <symbol id="success" viewBox="0 0 20 20">
    <circle fill="none" stroke="#4BBC6E" stroke-miterlimit="10" cx="10" cy="10" r="8.5"/>
    <polyline fill="none" stroke="#4BBC6E" stroke-width="2" stroke-miterlimit="10" points="6.4,9.1 9.4,12.1 13.6,7.1 "/>
  </symbol>
  <!--Error-->
  <symbol id="error" viewBox="0 0 20 20">
    <path fill="#EF3F61" d="M9.1,14.6c0-0.3,0.1-0.5,0.3-0.7c0.2-0.2,0.4-0.2,0.6-0.2c0.2,0,0.5,0.1,0.6,0.2c0.2,0.2,0.3,0.4,0.3,0.7
	c0,0.3-0.1,0.5-0.3,0.7c-0.2,0.2-0.4,0.2-0.6,0.2c-0.2,0-0.4-0.1-0.6-0.2C9.2,15.2,9.1,14.9,9.1,14.6z M9.2,10.2V8.4h1.6v1.8
	c0,0.9-0.1,1.9-0.2,3H9.4C9.3,12.1,9.2,11.1,9.2,10.2z"/>
    <path fill="none" stroke="#EF3F61" stroke-miterlimit="10" d="M11.4,2l7.3,13.7c0.8,1.4-0.1,3.4-1.4,3.4H2.7c-1.4,0-2.2-1.9-1.4-3.4
	L8.6,2C9.3,0.7,10.7,0.7,11.4,2z"/>
  </symbol>
</svg>
