<svg id="Layer_1" data-name="Layer 1" xmlns="http://www.w3.org/2000/svg" viewBox="0 0 118.49 40"><defs><style>.cls-1{font-size:18.75px;}.cls-1,.cls-2,.cls-3{fill:#04346e;}.cls-1,.cls-2{font-family:Ubuntu-Medium, Ubuntu;}.cls-2{font-size:12.89px;}</style></defs><title>e2e_plugin</title><text class="cls-1" transform="translate(52.3 18.68)">Subutai</text><text class="cls-2" transform="translate(53.91 34.55)">E2E Plugin</text><path class="cls-3" d="M35.56,44h-21a4.62,4.62,0,0,1-4.62-4.62V29.62h3.81v6.86a.78.78,0,0,0,.78.78h2.34a.78.78,0,0,0,.78-.78V29.62h6.75l.1.45a10.83,10.83,0,1,0,0-4.8l-.1.45H5.56a2,2,0,0,0-1.95,1.47,2,2,0,0,0,1.83,2.43l.57,0v9.72a8.52,8.52,0,0,0,8.52,8.52h21a8.52,8.52,0,0,0,8.52-8.52h0a.43.43,0,0,0-.71-.33,13.16,13.16,0,0,1-3.53,2.07A4.63,4.63,0,0,1,35.56,44ZM35,20.73a6.94,6.94,0,1,1-7,6.94A6.95,6.95,0,0,1,35,20.73Z" transform="translate(-3.55 -7.87)"/><path class="cls-3" d="M44.08,16.38h0a8.51,8.51,0,0,0-8.51-8.51h-21A8.52,8.52,0,0,0,6,16.39v5.35a.78.78,0,0,0,.78.78H9.13a.78.78,0,0,0,.78-.78V16.38a4.62,4.62,0,0,1,4.62-4.62h21a4.63,4.63,0,0,1,4.21,2.73.43.43,0,0,0,.23.22,13.17,13.17,0,0,1,3.36,2A.44.44,0,0,0,44.08,16.38Z" transform="translate(-3.55 -7.87)"/></svg>