<?xml version="1.0" encoding="utf-8"?>
<!-- Generator: Adobe Illustrator 19.1.1, SVG Export Plug-In . SVG Version: 6.00 Build 0)  -->
<svg version="1.1" id="Layer_1" xmlns="http://www.w3.org/2000/svg" xmlns:xlink="http://www.w3.org/1999/xlink" x="0px" y="0px"
	 viewBox="-368 263.9 131.5 34.1" style="enable-background:new -368 263.9 131.5 34.1;" xml:space="preserve">
<style type="text/css">
	.st0{fill:#04346E;}
	.st1{fill:#FFFFFF;}
</style>
<g>
	<path class="st0" d="M-340.7,294.7h-17.9c-2.2,0-3.9-1.8-3.9-3.9v-8.3h3.2v5.9c0,0.4,0.3,0.7,0.7,0.7h2c0.4,0,0.7-0.3,0.7-0.7v-5.9
		h5.8l0.1,0.4c0.9,4.2,4.7,7.2,9,7.2c5.1,0,9.2-4.2,9.2-9.3s-4.1-9.2-9.2-9.2c-4.3,0-8.1,3-9,7.2l-0.1,0.4h-16
		c-0.8,0-1.5,0.5-1.7,1.3c-0.3,1.1,0.5,2,1.6,2.1h0.5v8.3c0,4,3.3,7.3,7.3,7.3h18c4,0,7.3-3.3,7.3-7.3l0,0c0-0.3-0.4-0.5-0.6-0.3
		c-0.9,0.7-1.9,1.3-3,1.8C-337.6,293.7-339.1,294.7-340.7,294.7z M-341.1,274.9c3.3,0,5.9,2.7,5.9,5.9c0,3.3-2.7,5.9-5.9,5.9
		c-3.3,0-5.9-2.7-5.9-5.9C-347.1,277.5-344.4,274.9-341.1,274.9z"/>
	<path class="st0" d="M-333.4,271.2L-333.4,271.2c0-4-3.3-7.3-7.3-7.3h-18c-4,0-7.3,3.3-7.3,7.3v4.6c0,0.4,0.3,0.7,0.7,0.7h2
		c0.4,0,0.7-0.3,0.7-0.7v-4.6c0-2.2,1.8-3.9,3.9-3.9h17.9c1.6,0,3,0.9,3.6,2.3c0,0.1,0.1,0.2,0.2,0.2c1,0.4,2,1,2.9,1.7
		C-333.8,271.6-333.4,271.5-333.4,271.2z"/>
</g>
<g>
	<g>
		<polygon class="st0" points="-321.4,281.2 -321.4,268.7 -313.3,268.7 -313.3,270.6 -319.1,270.6 -319.1,273.7 -314,273.7 
			-314,275.6 -319.1,275.6 -319.1,279.2 -312.9,279.2 -312.9,281.2 		"/>
		<path class="st0" d="M-303.6,271.9c0,0.4-0.1,0.9-0.3,1.3c-0.2,0.4-0.4,0.8-0.7,1.2c-0.3,0.4-0.6,0.8-1,1.1s-0.7,0.7-1.1,1.1
			c-0.2,0.2-0.4,0.4-0.6,0.6s-0.5,0.5-0.7,0.8c-0.2,0.3-0.4,0.5-0.6,0.7c-0.2,0.2-0.2,0.4-0.3,0.6h5.5v1.8h-7.9c0-0.1,0-0.2,0-0.4
			c0-0.1,0-0.2,0-0.3c0-0.6,0.1-1.1,0.3-1.6c0.2-0.5,0.4-0.9,0.7-1.4c0.3-0.4,0.6-0.8,1-1.2s0.7-0.7,1.1-1.1
			c0.3-0.3,0.6-0.5,0.8-0.8c0.3-0.3,0.5-0.5,0.7-0.8c0.2-0.3,0.4-0.5,0.5-0.8c0.1-0.3,0.2-0.5,0.2-0.8c0-0.6-0.2-1.1-0.5-1.3
			c-0.4-0.3-0.8-0.4-1.3-0.4c-0.3,0-0.6,0-0.9,0.1c-0.3,0.1-0.5,0.2-0.8,0.3c-0.2,0.1-0.4,0.3-0.6,0.4c-0.2,0.1-0.3,0.2-0.4,0.3
			l-1.1-1.5c0.5-0.5,1.1-0.9,1.8-1.2c0.7-0.3,1.4-0.4,2.2-0.4c1.3,0,2.3,0.3,2.9,0.9C-304,270-303.6,270.8-303.6,271.9z"/>
		<polygon class="st0" points="-301.6,281.2 -301.6,268.7 -293.6,268.7 -293.6,270.6 -299.3,270.6 -299.3,273.7 -294.2,273.7 
			-294.2,275.6 -299.3,275.6 -299.3,279.2 -293.1,279.2 -293.1,281.2 		"/>
		<path class="st0" d="M-279.1,269.5c-1-0.7-2.4-1-4.2-1c-0.5,0-1.1,0-1.8,0.1c-0.6,0-1.2,0.1-1.8,0.2v12.3h2.3v-4.4h1.1
			c0.9,0,1.7-0.1,2.4-0.2c0.7-0.2,1.3-0.4,1.8-0.7c0.5-0.3,0.9-0.8,1.1-1.3c0.3-0.5,0.4-1.1,0.4-1.9
			C-277.7,271.2-278.2,270.2-279.1,269.5z M-281,274.4c-0.6,0.3-1.4,0.5-2.5,0.5h-1.1v-4.2c0.4,0,0.8-0.1,1.4-0.1
			c0.4,0,0.8,0,1.2,0.1c0.4,0.1,0.7,0.2,1,0.3c0.3,0.2,0.5,0.4,0.6,0.6c0.2,0.3,0.2,0.6,0.2,1C-280.1,273.5-280.4,274.1-281,274.4z"
			/>
		<path class="st0" d="M-272.5,281.3c-0.6,0-1.2-0.1-1.6-0.2c-0.4-0.1-0.8-0.3-1-0.6s-0.4-0.6-0.5-0.9c-0.1-0.4-0.2-0.8-0.2-1.3
			v-10.8l2.2-0.4V278c0,0.3,0,0.5,0.1,0.7c0,0.2,0.1,0.3,0.2,0.5s0.3,0.2,0.4,0.3c0.2,0.1,0.4,0.1,0.7,0.2L-272.5,281.3z"/>
		<path class="st0" d="M-262.7,280.9c-0.4,0.1-1,0.2-1.6,0.3c-0.7,0.1-1.4,0.2-2.2,0.2c-0.8,0-1.4-0.1-1.9-0.3
			c-0.5-0.2-0.9-0.5-1.2-0.9c-0.3-0.4-0.5-0.8-0.7-1.4c-0.1-0.5-0.2-1.1-0.2-1.8v-5.3h2.2v4.9c0,1,0.1,1.7,0.4,2.2
			c0.3,0.4,0.8,0.6,1.5,0.6c0.3,0,0.5,0,0.8,0s0.5-0.1,0.7-0.1v-7.6h2.2V280.9z"/>
		<path class="st0" d="M-253.7,271.7c-0.6-0.1-1.3-0.2-2-0.2c-0.7,0-1.4,0.1-2,0.3c-0.6,0.2-1.1,0.5-1.5,1c-0.4,0.4-0.7,0.9-0.9,1.5
			s-0.3,1.2-0.3,1.9c0,0.7,0.1,1.4,0.3,1.9c0.2,0.6,0.5,1,0.8,1.4c0.4,0.4,0.8,0.7,1.3,0.8c0.5,0.2,1,0.3,1.6,0.3
			c0.5,0,0.9-0.1,1.2-0.2c0.4-0.1,0.6-0.2,0.9-0.3v0.4c0,0.7-0.2,1.2-0.6,1.6c-0.4,0.4-1,0.5-1.9,0.5c-0.6,0-1.1,0-1.5-0.1
			s-0.9-0.2-1.3-0.4l-0.4,1.9c0.4,0.2,0.9,0.3,1.5,0.4c0.5,0.1,1.1,0.1,1.7,0.1c1.6,0,2.7-0.3,3.5-1s1.1-1.8,1.1-3.3v-8.2
			C-252.6,271.9-253.1,271.8-253.7,271.7z M-254.3,278.4c-0.2,0.1-0.4,0.2-0.7,0.3c-0.3,0.1-0.6,0.1-1,0.1c-0.6,0-1.2-0.2-1.6-0.6
			c-0.4-0.4-0.6-1.1-0.6-2c0-0.9,0.2-1.5,0.6-2.1c0.4-0.5,1-0.8,1.8-0.8c0.3,0,0.6,0,0.9,0c0.2,0,0.4,0.1,0.6,0.1V278.4z"/>
		<path class="st0" d="M-246.9,269c0,0.4-0.1,0.7-0.4,1c-0.3,0.2-0.6,0.4-0.9,0.4c-0.4,0-0.7-0.1-1-0.4c-0.3-0.2-0.4-0.6-0.4-1
			c0-0.4,0.1-0.8,0.4-1c0.3-0.2,0.6-0.4,1-0.4c0.4,0,0.7,0.1,0.9,0.4C-247.1,268.2-246.9,268.6-246.9,269z"/>
		<rect x="-249.3" y="271.7" class="st0" width="2.2" height="9.4"/>
		<path class="st0" d="M-244.4,272.1c0.4-0.1,1-0.2,1.6-0.3c0.7-0.1,1.4-0.2,2.2-0.2c0.8,0,1.4,0.1,1.9,0.3s0.9,0.5,1.2,0.9
			c0.3,0.4,0.5,0.8,0.6,1.4s0.2,1.1,0.2,1.8v5.3h-2.2v-5c0-0.5,0-0.9-0.1-1.3c-0.1-0.4-0.2-0.6-0.3-0.9c-0.1-0.2-0.4-0.4-0.6-0.5
			c-0.3-0.1-0.6-0.2-0.9-0.2c-0.3,0-0.6,0-0.9,0.1c-0.3,0-0.5,0.1-0.7,0.1v7.6h-2.2V272.1z"/>
	</g>
	<path class="st0" d="M-321.4,289.5c0-0.3,0-0.5,0.1-0.7c0.1-0.2,0.2-0.4,0.4-0.6c0.2-0.2,0.4-0.3,0.7-0.4c0.3-0.1,0.6-0.1,1-0.1
		c0.2,0,0.4,0,0.5,0c0.2,0,0.4,0,0.6,0.1c0.2,0,0.4,0.1,0.5,0.1c0.2,0.1,0.3,0.1,0.5,0.2c0.1,0,0.1,0.1,0.1,0.1c0,0,0,0.1,0,0.1
		l-0.2,0.7c0,0.1-0.1,0.1-0.1,0.1c0,0-0.1,0-0.1,0c-0.3-0.1-0.6-0.2-1-0.2c-0.3-0.1-0.6-0.1-0.9-0.1c-0.3,0-0.6,0.1-0.7,0.2
		c-0.2,0.1-0.2,0.3-0.2,0.5c0,0.1,0,0.2,0.1,0.3c0.1,0.1,0.1,0.2,0.3,0.3c0.1,0.1,0.3,0.2,0.5,0.3c0.2,0.1,0.4,0.2,0.7,0.3
		c0.3,0.1,0.5,0.2,0.8,0.4c0.3,0.1,0.5,0.3,0.7,0.4c0.2,0.2,0.3,0.4,0.5,0.6c0.1,0.2,0.2,0.5,0.2,0.8c0,0.3-0.1,0.6-0.2,0.9
		c-0.1,0.2-0.3,0.5-0.5,0.6c-0.2,0.2-0.5,0.3-0.8,0.4c-0.3,0.1-0.6,0.1-1,0.1c-0.4,0-0.8,0-1.3-0.1c-0.4-0.1-0.9-0.2-1.2-0.4
		c-0.1,0-0.1-0.1-0.1-0.2l0.3-0.7c0-0.1,0.1-0.1,0.2-0.1c0.3,0.1,0.6,0.2,1,0.3c0.3,0.1,0.7,0.1,1,0.1c0.5,0,0.8-0.1,1-0.3
		c0.2-0.2,0.3-0.4,0.3-0.6c0-0.1,0-0.3-0.1-0.4c-0.1-0.1-0.1-0.2-0.2-0.3c-0.1-0.1-0.2-0.2-0.4-0.3c-0.2-0.1-0.4-0.2-0.6-0.3
		c-0.3-0.1-0.7-0.3-0.9-0.4c-0.3-0.1-0.5-0.3-0.7-0.4c-0.2-0.2-0.3-0.3-0.4-0.5C-321.3,290-321.4,289.8-321.4,289.5z"/>
	<path class="st0" d="M-313.4,293.7c0.1,0,0.2,0,0.3,0c0.1,0,0.3,0,0.5-0.1v-4c0-0.1,0-0.1,0-0.1c0,0,0.1,0,0.1,0h0.8
		c0.1,0,0.1,0,0.1,0c0,0,0,0.1,0,0.1v4.2c0,0.2-0.1,0.4-0.2,0.5c-0.1,0.1-0.3,0.2-0.5,0.3c-0.1,0-0.2,0-0.3,0c-0.1,0-0.2,0-0.3,0
		c-0.1,0-0.2,0-0.3,0c-0.1,0-0.2,0-0.3,0c-0.4,0-0.8,0-1.1-0.1c-0.3-0.1-0.6-0.2-0.7-0.4c-0.2-0.2-0.3-0.5-0.4-0.8
		c-0.1-0.3-0.1-0.7-0.1-1.1v-2.6c0-0.1,0-0.1,0-0.1c0,0,0.1,0,0.1,0h0.8c0.1,0,0.1,0,0.1,0c0,0,0,0.1,0,0.1v2.6c0,0.3,0,0.5,0,0.7
		c0,0.2,0.1,0.3,0.2,0.5c0.1,0.1,0.2,0.2,0.4,0.3C-313.9,293.7-313.7,293.7-313.4,293.7z"/>
	<path class="st0" d="M-305.8,292c0,0.4,0,0.7-0.1,1.1c-0.1,0.3-0.2,0.6-0.4,0.9c-0.2,0.2-0.5,0.4-0.8,0.6c-0.3,0.1-0.7,0.2-1.1,0.2
		c-0.3,0-0.7,0-1-0.1c-0.3-0.1-0.7-0.1-1-0.3c-0.1,0-0.1-0.1-0.1-0.1c0,0,0-0.1,0-0.1v-4.6v-1.8c0-0.1,0-0.1,0-0.1c0,0,0.1,0,0.1,0
		h0.8c0.1,0,0.1,0,0.1,0c0,0,0,0.1,0,0.1l0,1.9c0.2-0.1,0.4-0.1,0.6-0.1c0.2,0,0.4,0,0.6,0c0.4,0,0.7,0.1,1,0.2
		c0.3,0.1,0.5,0.3,0.7,0.5c0.2,0.2,0.3,0.5,0.4,0.8C-305.8,291.3-305.8,291.6-305.8,292z"/>
	<path class="st1" d="M-306.9,292c0-0.6-0.1-1-0.3-1.3c-0.2-0.3-0.5-0.4-0.9-0.4c-0.1,0-0.3,0-0.4,0c-0.2,0-0.4,0.1-0.6,0.1v3.1
		c0.2,0.1,0.3,0.1,0.5,0.1c0.2,0,0.3,0,0.4,0c0.2,0,0.4,0,0.6-0.1c0.2-0.1,0.3-0.2,0.4-0.3c0.1-0.1,0.2-0.3,0.3-0.5
		C-307,292.6-306.9,292.4-306.9,292z"/>
	<path class="st0" d="M-302.6,293.7c0.1,0,0.2,0,0.3,0c0.1,0,0.3,0,0.5-0.1v-4c0-0.1,0-0.1,0-0.1c0,0,0.1,0,0.1,0h0.8
		c0.1,0,0.1,0,0.1,0c0,0,0,0.1,0,0.1v4.2c0,0.2-0.1,0.4-0.2,0.5c-0.1,0.1-0.3,0.2-0.5,0.3c-0.1,0-0.2,0-0.3,0c-0.1,0-0.2,0-0.3,0
		c-0.1,0-0.2,0-0.3,0c-0.1,0-0.2,0-0.3,0c-0.4,0-0.8,0-1.1-0.1c-0.3-0.1-0.6-0.2-0.7-0.4c-0.2-0.2-0.3-0.5-0.4-0.8
		c-0.1-0.3-0.1-0.7-0.1-1.1v-2.6c0-0.1,0-0.1,0-0.1c0,0,0.1,0,0.1,0h0.8c0.1,0,0.1,0,0.1,0c0,0,0,0.1,0,0.1v2.6c0,0.3,0,0.5,0,0.7
		c0,0.2,0.1,0.3,0.2,0.5c0.1,0.1,0.2,0.2,0.4,0.3C-303,293.7-302.8,293.7-302.6,293.7z"/>
	<path class="st0" d="M-296.8,294.5C-296.8,294.5-296.9,294.5-296.8,294.5c-0.3,0.2-0.5,0.2-0.8,0.2c-0.2,0-0.4,0-0.5,0
		c-0.5,0-0.9-0.1-1.1-0.3c-0.2-0.2-0.3-0.6-0.3-1v-3l0-1.8c0-0.1,0-0.1,0.1-0.1c0,0,0.1-0.1,0.2-0.1l0.7-0.2c0.1,0,0.1,0,0.1,0
		c0,0,0,0.1,0,0.1v1.2h1.2c0.1,0,0.1,0,0.1,0c0,0,0,0.1,0,0.1v0.5c0,0.1,0,0.1,0,0.1c0,0-0.1,0-0.1,0h-1.2v2.8c0,0.2,0,0.3,0.1,0.4
		c0.1,0.1,0.2,0.1,0.4,0.1c0,0,0.1,0,0.2,0c0.1,0,0.1,0,0.2,0c0.1,0,0.1,0,0.2,0c0.1,0,0.1,0,0.2,0c0.1,0,0.1,0,0.1,0c0,0,0,0,0,0.1
		l0.1,0.6C-296.8,294.4-296.8,294.5-296.8,294.5z"/>
	<path class="st0" d="M-291.8,294c0,0.2-0.1,0.3-0.2,0.3c-0.1,0.1-0.3,0.1-0.5,0.2c-0.2,0-0.3,0.1-0.5,0.1c-0.2,0-0.3,0-0.5,0.1
		c-0.2,0-0.3,0-0.5,0c-0.4,0-0.8,0-1.1-0.1c-0.3-0.1-0.5-0.2-0.7-0.3c-0.2-0.1-0.3-0.3-0.3-0.5c-0.1-0.2-0.1-0.4-0.1-0.6
		c0-0.2,0-0.4,0.1-0.7c0.1-0.2,0.2-0.4,0.4-0.6c0.2-0.2,0.4-0.3,0.7-0.4c0.3-0.1,0.6-0.1,1-0.1h1.1v-0.2c0-0.1,0-0.2,0-0.3
		c0-0.1-0.1-0.2-0.2-0.3c-0.1-0.1-0.2-0.1-0.3-0.2c-0.1,0-0.3-0.1-0.5-0.1c-0.2,0-0.5,0-0.7,0.1c-0.3,0-0.5,0.1-0.6,0.1
		c-0.1,0-0.1,0-0.2,0c0,0-0.1,0-0.1-0.1l-0.1-0.6c0-0.1,0-0.2,0.1-0.2c0.3-0.1,0.6-0.2,0.9-0.2c0.3,0,0.6-0.1,0.9-0.1
		c0.7,0,1.2,0.1,1.5,0.4c0.3,0.3,0.5,0.7,0.5,1.3V294z"/>
	<path class="st1" d="M-293,292.2h-0.9c-0.1,0-0.2,0-0.4,0c-0.1,0-0.2,0-0.4,0.1c-0.1,0.1-0.2,0.1-0.3,0.3c-0.1,0.1-0.1,0.3-0.1,0.5
		c0,0.3,0.1,0.5,0.3,0.6c0.2,0.1,0.4,0.2,0.7,0.2c0,0,0.1,0,0.2,0c0.1,0,0.2,0,0.3,0c0.1,0,0.2,0,0.3,0c0.1,0,0.2,0,0.3-0.1V292.2z"
		/>
	<path class="st0" d="M-289.5,288.2c0,0.2-0.1,0.4-0.2,0.5c-0.1,0.1-0.3,0.2-0.5,0.2s-0.4-0.1-0.5-0.2c-0.1-0.1-0.2-0.3-0.2-0.5
		c0-0.2,0.1-0.4,0.2-0.5c0.1-0.1,0.3-0.2,0.5-0.2s0.4,0.1,0.5,0.2C-289.6,287.8-289.5,288-289.5,288.2z"/>
	<path class="st0" d="M-289.6,294.4c0,0.1,0,0.1,0,0.1c0,0-0.1,0-0.2,0h-0.7c-0.1,0-0.1,0-0.1,0c0,0,0-0.1,0-0.1v-4.8
		c0-0.1,0-0.1,0-0.1c0,0,0.1,0,0.1,0h0.7c0.1,0,0.1,0,0.2,0c0,0,0,0.1,0,0.1V294.4z"/>
	<path class="st0" d="M-284.3,289.5c0-0.3,0-0.5,0.1-0.7c0.1-0.2,0.2-0.4,0.4-0.6c0.2-0.2,0.4-0.3,0.7-0.4c0.3-0.1,0.6-0.1,1-0.1
		c0.2,0,0.4,0,0.5,0c0.2,0,0.4,0,0.6,0.1c0.2,0,0.4,0.1,0.5,0.1c0.2,0.1,0.3,0.1,0.5,0.2c0.1,0,0.1,0.1,0.1,0.1c0,0,0,0.1,0,0.1
		l-0.2,0.7c0,0.1-0.1,0.1-0.1,0.1c0,0-0.1,0-0.1,0c-0.3-0.1-0.6-0.2-1-0.2c-0.3-0.1-0.6-0.1-0.9-0.1c-0.3,0-0.6,0.1-0.7,0.2
		c-0.2,0.1-0.2,0.3-0.2,0.5c0,0.1,0,0.2,0.1,0.3c0.1,0.1,0.1,0.2,0.3,0.3c0.1,0.1,0.3,0.2,0.5,0.3c0.2,0.1,0.4,0.2,0.7,0.3
		c0.3,0.1,0.5,0.2,0.8,0.4c0.3,0.1,0.5,0.3,0.7,0.4c0.2,0.2,0.3,0.4,0.5,0.6c0.1,0.2,0.2,0.5,0.2,0.8c0,0.3-0.1,0.6-0.2,0.9
		c-0.1,0.2-0.3,0.5-0.5,0.6c-0.2,0.2-0.5,0.3-0.8,0.4c-0.3,0.1-0.6,0.1-1,0.1c-0.4,0-0.8,0-1.3-0.1c-0.4-0.1-0.9-0.2-1.2-0.4
		c-0.1,0-0.1-0.1-0.1-0.2l0.3-0.7c0-0.1,0.1-0.1,0.2-0.1c0.3,0.1,0.6,0.2,1,0.3c0.3,0.1,0.7,0.1,1,0.1c0.5,0,0.8-0.1,1-0.3
		c0.2-0.2,0.3-0.4,0.3-0.6c0-0.1,0-0.3-0.1-0.4c-0.1-0.1-0.1-0.2-0.2-0.3c-0.1-0.1-0.2-0.2-0.4-0.3c-0.2-0.1-0.4-0.2-0.6-0.3
		c-0.3-0.1-0.7-0.3-0.9-0.4c-0.3-0.1-0.5-0.3-0.7-0.4c-0.2-0.2-0.3-0.3-0.4-0.5C-284.3,290-284.3,289.8-284.3,289.5z"/>
	<path class="st0" d="M-274.1,292c0,0.9-0.2,1.5-0.6,2c-0.4,0.5-1,0.7-1.8,0.7c-0.8,0-1.4-0.2-1.8-0.7c-0.4-0.4-0.6-1.1-0.6-2
		c0-0.4,0.1-0.8,0.2-1.1c0.1-0.3,0.3-0.6,0.5-0.8c0.2-0.2,0.5-0.4,0.7-0.5c0.3-0.1,0.6-0.2,1-0.2c0.8,0,1.4,0.2,1.8,0.7
		C-274.3,290.6-274.1,291.2-274.1,292z"/>
	<path class="st1" d="M-275.2,292.1c0-0.2,0-0.5-0.1-0.7c0-0.2-0.1-0.4-0.2-0.6c-0.1-0.2-0.2-0.3-0.4-0.4c-0.2-0.1-0.3-0.1-0.6-0.1
		c-0.2,0-0.4,0-0.5,0.1c-0.2,0.1-0.3,0.2-0.4,0.4c-0.1,0.1-0.2,0.3-0.2,0.5c0,0.2-0.1,0.4-0.1,0.7c0,0.5,0.1,1,0.3,1.3
		c0.2,0.3,0.5,0.5,0.9,0.5c0.2,0,0.4,0,0.6-0.1c0.2-0.1,0.3-0.2,0.4-0.4c0.1-0.2,0.2-0.3,0.2-0.5
		C-275.3,292.5-275.2,292.3-275.2,292.1z"/>
	<path class="st0" d="M-270.9,293.7c0.2,0,0.4,0,0.6-0.1c0.2-0.1,0.4-0.1,0.5-0.2c0.1,0,0.1,0,0.2,0c0,0,0.1,0,0.1,0.1l0.2,0.6
		c0.1,0.1,0,0.2-0.1,0.2c-0.3,0.1-0.6,0.2-0.9,0.3c-0.3,0-0.6,0.1-0.9,0.1c-0.7,0-1.3-0.2-1.7-0.7c-0.4-0.4-0.6-1.1-0.6-2
		c0-0.4,0.1-0.8,0.2-1.1c0.1-0.3,0.3-0.6,0.5-0.9c0.2-0.2,0.5-0.4,0.7-0.5c0.3-0.1,0.6-0.2,1-0.2c0.3,0,0.5,0,0.8,0.1
		c0.2,0.1,0.5,0.1,0.7,0.3c0.1,0,0.1,0.1,0.1,0.1c0,0,0,0.1,0,0.1l-0.2,0.6c0,0.1-0.1,0.1-0.1,0.1c0,0-0.1,0-0.2,0
		c-0.2-0.1-0.3-0.1-0.5-0.2c-0.2,0-0.3-0.1-0.5-0.1c-0.2,0-0.4,0-0.6,0.1c-0.2,0.1-0.3,0.2-0.4,0.4c-0.1,0.2-0.2,0.3-0.2,0.5
		c0,0.2-0.1,0.4-0.1,0.6c0,0.2,0,0.4,0.1,0.6c0,0.2,0.1,0.4,0.2,0.5c0.1,0.1,0.2,0.3,0.4,0.3C-271.4,293.7-271.2,293.7-270.9,293.7z
		"/>
	<path class="st0" d="M-267,288.2c0,0.2-0.1,0.4-0.2,0.5c-0.1,0.1-0.3,0.2-0.5,0.2c-0.2,0-0.4-0.1-0.5-0.2c-0.1-0.1-0.2-0.3-0.2-0.5
		c0-0.2,0.1-0.4,0.2-0.5c0.1-0.1,0.3-0.2,0.5-0.2c0.2,0,0.4,0.1,0.5,0.2C-267.1,287.8-267,288-267,288.2z"/>
	<path class="st0" d="M-267.2,294.4c0,0.1,0,0.1,0,0.1c0,0-0.1,0-0.2,0h-0.7c-0.1,0-0.1,0-0.1,0c0,0,0-0.1,0-0.1v-4.8
		c0-0.1,0-0.1,0-0.1c0,0,0.1,0,0.1,0h0.7c0.1,0,0.1,0,0.2,0c0,0,0,0.1,0,0.1V294.4z"/>
	<path class="st0" d="M-261.8,294c0,0.2-0.1,0.3-0.2,0.3c-0.1,0.1-0.3,0.1-0.5,0.2c-0.2,0-0.3,0.1-0.5,0.1c-0.2,0-0.3,0-0.5,0.1
		c-0.2,0-0.3,0-0.5,0c-0.4,0-0.8,0-1.1-0.1c-0.3-0.1-0.5-0.2-0.7-0.3c-0.2-0.1-0.3-0.3-0.3-0.5c-0.1-0.2-0.1-0.4-0.1-0.6
		c0-0.2,0-0.4,0.1-0.7c0.1-0.2,0.2-0.4,0.4-0.6c0.2-0.2,0.4-0.3,0.7-0.4c0.3-0.1,0.6-0.1,1-0.1h1.1v-0.2c0-0.1,0-0.2,0-0.3
		c0-0.1-0.1-0.2-0.2-0.3c-0.1-0.1-0.2-0.1-0.3-0.2c-0.1,0-0.3-0.1-0.5-0.1c-0.2,0-0.5,0-0.7,0.1c-0.3,0-0.5,0.1-0.6,0.1
		c-0.1,0-0.1,0-0.2,0c0,0-0.1,0-0.1-0.1l-0.1-0.6c0-0.1,0-0.2,0.1-0.2c0.3-0.1,0.6-0.2,0.9-0.2c0.3,0,0.6-0.1,0.9-0.1
		c0.7,0,1.2,0.1,1.5,0.4c0.3,0.3,0.5,0.7,0.5,1.3V294z"/>
	<path class="st1" d="M-263,292.2h-0.9c-0.1,0-0.2,0-0.4,0c-0.1,0-0.2,0-0.4,0.1c-0.1,0.1-0.2,0.1-0.3,0.3c-0.1,0.1-0.1,0.3-0.1,0.5
		c0,0.3,0.1,0.5,0.3,0.6c0.2,0.1,0.4,0.2,0.7,0.2c0,0,0.1,0,0.2,0c0.1,0,0.2,0,0.3,0c0.1,0,0.2,0,0.3,0s0.2,0,0.3-0.1V292.2z"/>
	<path class="st0" d="M-258.8,294.4c0,0.1,0,0.1,0,0.1c0,0-0.1,0.1-0.1,0.1c-0.1,0.1-0.3,0.1-0.4,0.1c-0.2,0-0.3,0-0.4,0
		c-0.4,0-0.6-0.1-0.8-0.3c-0.2-0.2-0.3-0.5-0.3-0.9v-5.9c0-0.1,0-0.1,0-0.1c0,0,0.1,0,0.1,0h0.8c0.1,0,0.1,0,0.2,0c0,0,0,0.1,0,0.1
		v5.6c0,0.2,0,0.3,0.1,0.3c0,0.1,0.1,0.1,0.3,0.1c0.1,0,0.1,0,0.2,0c0.1,0,0.1,0,0.2,0c0.1,0,0.1,0,0.1,0c0,0,0,0.1,0,0.1
		L-258.8,294.4z"/>
</g>
</svg>
