<?xml version="1.0" encoding="utf-8"?>
<!-- Generator: Adobe Illustrator 17.1.0, SVG Export Plug-In . SVG Version: 6.00 Build 0)  -->
<!DOCTYPE svg PUBLIC "-//W3C//DTD SVG 1.1//EN" "http://www.w3.org/Graphics/SVG/1.1/DTD/svg11.dtd">
<svg version="1.1" id="Layer_1" xmlns="http://www.w3.org/2000/svg" xmlns:xlink="http://www.w3.org/1999/xlink" x="0px" y="0px"
	 viewBox="0 0 16 16" enable-background="new 0 0 16 16" xml:space="preserve">
<path fill="#FFFFFF" d="M13.7,6.3l-2-2.1c-0.1-0.1-0.2-0.1-0.3,0l-4,4C7.2,8.2,7.1,8.1,6.9,8C6.8,7.9,6.6,7.9,6.5,7.8c0,0,0,0-0.1,0
	c-0.1,0-0.2-0.1-0.3-0.1V5.4h1.4c0.1,0,0.2-0.1,0.2-0.2V4.5c0-0.1-0.1-0.2-0.2-0.2H6.1V3H8c0.1,0,0.2-0.1,0.2-0.2V2.1
	C8.2,2,8.1,1.9,8,1.9H5.1C5,1.8,4.9,1.9,4.9,2.1L5,7.8c0,0,0,0-0.1,0c-0.1,0-0.1,0-0.1,0c-0.1,0-0.3,0.1-0.4,0.1
	C4.3,7.9,4.2,8,4.1,8C4,8.1,3.9,8.1,3.8,8.2c-0.1,0-0.1,0.1-0.2,0.1C3.5,8.4,3.3,8.5,3.2,8.6c0,0,0,0-0.1,0.1C3,8.8,2.9,9,2.8,9.1
	c0,0,0,0-0.1,0.1C2.4,9.7,2.2,10.3,2.2,11c0,0.1,0,0.1,0,0.2c0,0.1,0,0.2,0,0.4c0,0.1,0,0.2,0.1,0.2c0,0.1,0.1,0.2,0.1,0.4
	c0,0.1,0.1,0.1,0.1,0.2c0.1,0.1,0.1,0.2,0.2,0.4c0,0.1,0.1,0.1,0.1,0.1C3,13,3,13.1,3.1,13.1c0,0,0,0,0.1,0.1
	c0.1,0.1,0.2,0.1,0.3,0.2c0.1,0.1,0.2,0.2,0.3,0.2c0.1,0.1,0.3,0.2,0.5,0.3c0.1,0,0.1,0,0.2,0.1s0.3,0.1,0.4,0.1c0.1,0,0.1,0,0.2,0
	c0.1,0,0.2,0,0.4,0c0,0,0,0,0.1,0c0.1,0,0.3,0,0.4,0s0.2,0,0.2,0c0.6-0.1,1.2-0.4,1.7-0.9c0.3-0.3,0.5-0.6,0.7-1v-0.1
	c0.1-0.2,0.1-0.3,0.1-0.5c0-0.1,0-0.1,0-0.2c0-0.1,0-0.3,0-0.4v-0.1v-0.1c0-0.1,0-0.2,0-0.3s0-0.2,0-0.3c0-0.1,0-0.1-0.1-0.2
	c0-0.1-0.1-0.2-0.1-0.3c0-0.1,0-0.1-0.1-0.2c0-0.1-0.1-0.2-0.2-0.3l1.6-1.6l1,1c0.1,0.1,0.2,0.1,0.3,0L11.6,8c0.1-0.1,0.1-0.2,0-0.3
	l-1-1l0.9-0.9l1.3,1.4c0.1,0.1,0.2,0.1,0.3,0l0.5-0.5C13.8,6.5,13.8,6.4,13.7,6.3z M7.6,10.7c0,0.1,0,0.3,0,0.4
	c-0.1,0-0.1,0.1-0.1,0.2c-0.1,0.4-0.3,0.8-0.6,1.1C6.6,12.8,6,13,5.5,13c-0.4,0-0.8-0.1-1.1-0.3c-0.1-0.1-0.2-0.2-0.3-0.3
	c-0.4-0.4-0.6-0.9-0.6-1.5c0-0.6,0.2-1.1,0.6-1.5c0.1-0.1,0.2-0.2,0.4-0.3c0.2-0.1,0.6-0.2,1-0.2c0.6,0,1.1,0.2,1.5,0.6
	c0.3,0.3,0.5,0.7,0.6,1.1V10.7z"/>
</svg>
